<?xml version="1.0" encoding="utf-8"?>
<!-- Generator: Adobe Illustrator 18.1.1, SVG Export Plug-In . SVG Version: 6.00 Build 0)  -->
<svg version="1.1" id="Layer_1" xmlns="http://www.w3.org/2000/svg" xmlns:xlink="http://www.w3.org/1999/xlink" x="0px" y="0px"
	 viewBox="0 0 198 32" enable-background="new 0 0 198 32" xml:space="preserve">
<g>
	<g>
		<polyline fill="#4C99D2" points="66,4.2 67.5,4.2 67.5,25.9 82.5,25.9 82.5,27.1 66,27.1 66,4.2 		"/>
		<path fill="#4C99D2" d="M91.5,10.2c5.9,0,9.3,4.1,9.3,8.7c0,4.6-3.4,8.7-9.3,8.7c-5.9,0-9.3-4.1-9.3-8.7
			C82.2,14.3,85.6,10.2,91.5,10.2 M91.5,26.4c5.2,0,7.8-3.7,7.8-7.4s-2.6-7.4-7.8-7.4c-5.2,0-7.8,3.7-7.8,7.4S86.3,26.4,91.5,26.4z"
			/>
		<polyline fill="#4C99D2" points="113.5,10.7 115.3,10.7 121.1,25.3 126.9,10.7 128.5,10.7 121.8,27.1 120.2,27.1 114.4,12.4 
			108.6,27.1 107,27.1 100.2,10.7 101.9,10.7 107.9,25.3 113.5,10.7 		"/>
		<path fill="#4C99D2" d="M131.3,10.4h5.3v3.3h0.1c2-2.6,3.6-3.7,6.7-3.7c0.6,0,1.4,0,2,0.2v5.1c-1-0.3-2-0.5-3-0.5
			c-3.7,0-5.5,1.9-5.5,5.1v7.2h-5.5V10.4"/>
		<path fill="#4C99D2" d="M146.9,4.5h5.5v3.9h-5.5V4.5z M146.9,10.4h5.5v16.7h-5.5V10.4z"/>
		<path fill="#4C99D2" d="M159.5,22c0.2,1.4,1.2,2.4,4.1,2.4c2.5,0,4-0.6,4-1.8c0-0.9-0.5-1.3-3.1-1.7l-5-0.7
			c-3.5-0.5-5.5-1.6-5.5-4.7c0-4.5,4.6-5.6,9.1-5.6c7.7,0,9.5,2.5,9.9,5.6h-6c-0.3-1.7-2.1-2.2-3.7-2.2c-1.4,0-3.6,0.1-3.6,1.8
			c0,0.8,0.4,1.3,2.8,1.6l3.8,0.4c5.6,0.6,7.4,2.2,7.4,5.1c0,5-5.5,5.6-10.3,5.6c-6.3,0-9.5-1.8-9.8-5.8H159.5"/>
		<path fill="#4C99D2" d="M195.8,22.2c-1.6,4-5.4,5.6-10.4,5.6c-6.6,0-11-2.7-11-9c0-6.3,4.4-9,11-9c7.2,0,10.7,3.6,10.7,9.9v0.5
			H180v0.1c0,1.6,1.6,4,5.4,4c2.2,0,3.8-0.7,4.6-2.2H195.8 M190.4,17L190.4,17c0-1-1.2-3.8-5.2-3.8c-4.3,0-5.2,3.3-5.2,3.7V17H190.4
			z"/>
	</g>
</g>
<polyline fill="#9EC1E3" points="23.9,27.7 5.4,20.3 0,22.5 23.9,32 47.8,22.5 42.3,20.3 23.9,27.7 "/>
<g>
	<g>
		<polyline fill="#78ACDA" points="40.1,19 47.8,16 42.3,13.8 34.6,16.9 40.1,19 		"/>
		<polyline fill="#78ACDA" points="28.2,19.4 23.9,21.2 5.4,13.8 0,16 23.9,25.5 33.7,21.6 28.2,19.4 		"/>
	</g>
</g>
<path fill="#4C99D2" d="M47.8,9.5L23.9,19L0,9.5L23.9,0L47.8,9.5 M23.9,5.5l-10.1,4l10.1,4l10.1-4L23.9,5.5z"/>
</svg>
