<?xml version="1.0" encoding="utf-8"?>
<!-- Generator: Adobe Illustrator 18.1.1, SVG Export Plug-In . SVG Version: 6.00 Build 0)  -->
<svg version="1.1" id="Layer_1" xmlns="http://www.w3.org/2000/svg" xmlns:xlink="http://www.w3.org/1999/xlink" x="0px" y="0px"
	 viewBox="0 0 160 26" enable-background="new 0 0 160 26" xml:space="preserve">
<g>
	<g>
		<polyline fill="#4C99D2" points="53.6,3.4 54.8,3.4 54.8,21 67,21 67,22.1 53.6,22.1 53.6,3.4 		"/>
		<path fill="#4C99D2" d="M74.3,8.3c4.8,0,7.5,3.3,7.5,7.1c0,3.8-2.8,7.1-7.5,7.1c-4.8,0-7.5-3.3-7.5-7.1
			C66.8,11.6,69.6,8.3,74.3,8.3 M74.3,21.4c4.2,0,6.3-3,6.3-6s-2.1-6-6.3-6c-4.2,0-6.3,3-6.3,6S70.1,21.4,74.3,21.4z"/>
		<polyline fill="#4C99D2" points="92.2,8.7 93.7,8.7 98.4,20.5 103.1,8.7 104.4,8.7 99,22.1 97.6,22.1 92.9,10.1 88.3,22.1 
			86.9,22.1 81.5,8.7 82.8,8.7 87.6,20.5 92.2,8.7 		"/>
		<path fill="#4C99D2" d="M106.7,8.5h4.3v2.7h0.1c1.6-2.1,2.9-3,5.4-3c0.5,0,1.1,0,1.6,0.1v4.2c-0.8-0.2-1.6-0.4-2.5-0.4
			c-3,0-4.5,1.5-4.5,4.2v5.9h-4.5V8.5"/>
		<path fill="#4C99D2" d="M119.4,3.7h4.5v3.1h-4.5V3.7z M119.4,8.5h4.5v13.6h-4.5V8.5z"/>
		<path fill="#4C99D2" d="M129.6,17.8c0.2,1.2,1,1.9,3.3,1.9c2,0,3.2-0.5,3.2-1.5c0-0.8-0.4-1.1-2.5-1.4l-4.1-0.6
			c-2.8-0.4-4.5-1.3-4.5-3.8c0-3.7,3.7-4.6,7.4-4.6c6.3,0,7.7,2.1,8,4.6h-4.9c-0.3-1.4-1.7-1.8-3-1.8c-1.2,0-2.9,0.1-2.9,1.4
			c0,0.6,0.3,1.1,2.3,1.3l3.1,0.3c4.5,0.5,6,1.8,6,4.2c0,4-4.5,4.6-8.4,4.6c-5.1,0-7.7-1.5-8-4.7H129.6"/>
		<path fill="#4C99D2" d="M159.1,18c-1.3,3.2-4.4,4.6-8.5,4.6c-5.4,0-9-2.2-9-7.3c0-5.1,3.6-7.3,9-7.3c5.9,0,8.7,3,8.7,8.1v0.4
			h-13.1v0.1c0,1.3,1.3,3.3,4.4,3.3c1.8,0,3.1-0.6,3.7-1.8H159.1 M154.7,13.8L154.7,13.8c0-0.8-0.9-3.1-4.2-3.1
			c-3.5,0-4.3,2.7-4.3,3v0.1H154.7z"/>
	</g>
</g>
<polyline fill="#9EC1E3" points="19.4,22.5 4.4,16.5 0,18.3 19.4,26 38.8,18.3 34.4,16.5 19.4,22.5 "/>
<g>
	<g>
		<polyline fill="#78ACDA" points="32.6,15.5 38.8,13 34.4,11.2 28.1,13.7 32.6,15.5 		"/>
		<polyline fill="#78ACDA" points="22.9,15.8 19.4,17.2 4.4,11.2 0,13 19.4,20.7 27.4,17.5 22.9,15.8 		"/>
	</g>
</g>
<path fill="#4C99D2" d="M38.8,7.7l-19.4,7.7L0,7.7L19.4,0L38.8,7.7 M19.4,4.5l-8.2,3.3l8.2,3.3l8.2-3.3L19.4,4.5z"/>
</svg>
